<svg width="48" height="48" viewBox="0 0 48 48" fill="none" xmlns="http://www.w3.org/2000/svg">
<g clip-path="url(#clip0_857_4)">
<path d="M36.0078 1.99976H12.0078C6.48497 1.99976 2.00781 6.47691 2.00781 11.9998V35.9998C2.00781 41.5226 6.48497 45.9998 12.0078 45.9998H36.0078C41.5307 45.9998 46.0078 41.5226 46.0078 35.9998V11.9998C46.0078 6.47691 41.5307 1.99976 36.0078 1.99976Z" stroke="black" stroke-width="4"/>
<path d="M33.9028 14.1039C31.6132 11.8127 28.5999 10.3863 25.3764 10.0678C22.1529 9.74939 18.9187 10.5585 16.225 12.3574C13.5313 14.1563 11.5447 16.8336 10.6037 19.9331C9.66277 23.0326 9.82569 26.3624 11.0647 29.3553C12.3038 32.3481 14.5423 34.8186 17.3987 36.346C20.2552 37.8733 23.5529 38.3629 26.7299 37.7312C29.9069 37.0996 32.7666 35.3859 34.8216 32.8821C36.8766 30.3783 37.9999 27.2394 38 24.0002C37.9999 20.2888 36.5262 16.7292 33.9028 14.1039ZM30.228 32.938C29.5806 33.3904 28.8856 33.7705 28.1554 34.0715V22.0572L30.228 19.9847V32.938ZM16.3161 16.3034C18.1672 14.4551 20.6218 13.3348 23.2309 13.1474C25.8401 12.96 28.4296 13.7179 30.5259 15.2826L15.2953 30.5197C13.7289 28.4228 12.9699 25.832 13.1573 23.2214C13.3448 20.6107 14.4661 18.1549 16.3161 16.3034ZM19.8653 30.3474V34.0637C19.0216 33.7167 18.2251 33.2645 17.4948 32.7178L19.8653 30.3474ZM22.9741 34.8318V27.2386L25.0466 25.166V34.8344C24.3572 34.899 23.6633 34.8981 22.9741 34.8318ZM33.3368 29.6155V18.385C34.3547 20.0811 34.8925 22.0221 34.8925 24.0002C34.8925 25.9784 34.3547 27.9194 33.3368 29.6155Z" fill="black"/>
</g>
<defs>
<clipPath id="clip0_857_4">
<rect width="48" height="48" fill="white"/>
</clipPath>
</defs>
</svg>
